# xmcd
#
# Track frame offsets:
#	150
#	11758
#	23558
#	33968
#	44755
#	59870
#	70420
#	85213
#	97280
#	108683
#	119363
#	129375
#	140030
#	151250
#
# Disc length: 2189 seconds
#
# Revision: 1
# Processed by: cddbd v1.5.2PL0 Copyright (c) Steve Scherf et al.
# Submitted via: audiograbber 1.83.01
#
DISCID=cf088b0e
DTITLE=Diversen - The Spirit of Country
DYEAR=1900
DGENRE=
TTITLE0=Buck Owens - Foolin' around
TTITLE1=Willie Nelson - Touch me
TTITLE2=Frankie Lane - I believe
TTITLE3=Freddy Fender - Wild side of life
TTITLE4=Kenny Rogers and The First Edition - Just dropped in 
TTITLE5=Faron Young - If you ain't lovin 
TTITLE6=Jeannie C. Riley - Harper valley PTA
TTITLE7=Billie Jo Spears - Misty blue
TTITLE8=Wynn Stewart - It's such a pretty world today
TTITLE9=Ferlin Husky - Wings of a dove
TTITLE10=Jan Howard - The one you slip around witch
TTITLE11=Stonewall Jackson - Waterloo
TTITLE12=Charlie Louvin - I don't love you anymore
TTITLE13=David Houston - My Woman's good to me
EXTD=
EXTT0=
EXTT1=
EXTT2=
EXTT3=
EXTT4=
EXTT5=
EXTT6=
EXTT7=
EXTT8=
EXTT9=
EXTT10=
EXTT11=
EXTT12=
EXTT13=
PLAYORDER=
